<svg width="86" height="151" viewBox="0 0 86 151" fill="none" xmlns="http://www.w3.org/2000/svg">
<path d="M69.2838 60.2V85.4H55V101H71.8809L83.5676 90.2V53L75.7765 47L69.2838 53V60.2ZM69.2838 60.2L84 53" stroke="black" stroke-width="4"/>
<path d="M16.7162 59.1778V86.2444H31V103H14.1191L2.43237 91.4V51.4444L10.2235 45L16.7162 51.4444V59.1778ZM16.7162 59.1778L2 51.4444" stroke="black" stroke-width="4"/>
<path d="M14 149H30.9302M70 149H54.3721M54.3721 149V11.9649L42.6512 3M54.3721 149H42.6512M42.6512 3L30.9302 11.9649V149M42.6512 3V149M30.9302 149H42.6512" stroke="black" stroke-width="4"/>
</svg>
