<svg width="241" height="42" viewBox="0 0 241 42" fill="none" xmlns="http://www.w3.org/2000/svg">
<rect x="0.5" y="0.5" width="240" height="41" rx="20.5" fill="black"/>
<rect x="0.5" y="0.5" width="240" height="41" rx="20.5" stroke="url(#paint0_linear_67_61)"/>
<path d="M22.58 19.3C22.1 19.3 21.7 18.9 21.7 18.42C21.7 17.94 22.1 17.54 22.58 17.54C23.06 17.54 23.46 17.94 23.46 18.42C23.46 18.9 23.06 19.3 22.58 19.3ZM22.2 22.58H22.96L23.24 31.84H21.92L22.2 22.58ZM42.2002 21.5C42.2002 23.66 41.4802 25.34 40.3402 26.56L42.1602 28.5H40.6002L39.4802 27.3C38.1402 28.28 36.4402 28.78 34.6402 28.78C30.6202 28.78 27.0602 26.32 27.0602 21.5C27.0602 16.68 30.6202 14.2 34.6402 14.2C38.6402 14.2 42.2002 16.68 42.2002 21.5ZM34.6402 27.5C36.2202 27.5 37.5602 27.08 38.5802 26.34L35.9802 23.6H37.5602L39.4202 25.58C40.3402 24.54 40.8402 23.14 40.8402 21.5C40.8402 17.94 38.4802 15.5 34.6402 15.5C30.7802 15.5 28.4202 17.94 28.4202 21.5C28.4202 25.06 30.7802 27.5 34.6402 27.5ZM57.1984 14.5H58.5384V22.74C58.5384 27.26 56.0784 28.78 52.4584 28.78C48.8384 28.78 46.3984 27.26 46.3984 22.74V14.5H47.7184V22.74C47.7184 26.06 49.1384 27.5 52.4584 27.5C55.7784 27.5 57.1984 26.06 57.1984 22.74V14.5ZM63.7406 14.5H65.0806V28.5H63.7406V14.5ZM80.882 27.16V28.5H70.282V14.5H80.682V15.82H71.622V20.64H80.122V21.98H71.622V27.16H80.882ZM94.5405 23L98.0605 28.5H96.4805L93.1005 23.2C92.9005 23.22 92.6805 23.22 92.4605 23.22H86.6005V28.5H85.2805V14.5H92.6605C96.6805 14.5 97.7805 16.52 97.7805 18.86C97.7805 20.62 97.0205 22.38 94.5405 23ZM92.6605 21.9C95.4805 21.9 96.4205 20.72 96.4205 18.86C96.4205 17 95.4605 15.82 92.6605 15.82H86.6005V21.9H92.6605ZM108.636 14.2C112.636 14.2 116.196 16.68 116.196 21.5C116.196 26.32 112.636 28.78 108.636 28.78C104.616 28.78 101.056 26.32 101.056 21.5C101.056 16.68 104.616 14.2 108.636 14.2ZM108.636 27.5C112.476 27.5 114.836 25.06 114.836 21.5C114.836 17.94 112.476 15.5 108.636 15.5C104.776 15.5 102.436 17.94 102.436 21.5C102.436 25.06 104.776 27.5 108.636 27.5ZM139.911 14.5H141.411L134.771 28.5H133.031L126.391 14.5H127.911L133.911 27.22L139.911 14.5ZM145.02 14.5H146.36V28.5H145.02V14.5ZM163.462 28.5L161.762 24.9H153.162L151.462 28.5H149.962L156.602 14.5H158.322L164.962 28.5H163.462ZM153.782 23.58H161.142L157.462 15.78L153.782 23.58ZM178.837 14.5V22.68C178.837 27.06 176.957 28.78 173.257 28.78C169.537 28.78 167.557 27.02 167.557 23.3V22.66H168.897V23.28C168.897 25.8 169.977 27.5 173.257 27.5C176.577 27.5 177.517 25.86 177.517 22.68V14.5H178.837ZM195.744 28.5L194.044 24.9H185.444L183.744 28.5H182.244L188.884 14.5H190.604L197.244 28.5H195.744ZM186.064 23.58H193.424L189.744 15.78L186.064 23.58ZM210.094 23L213.614 28.5H212.034L208.654 23.2C208.454 23.22 208.234 23.22 208.014 23.22H202.154V28.5H200.834V14.5H208.214C212.234 14.5 213.334 16.52 213.334 18.86C213.334 20.62 212.574 22.38 210.094 23ZM208.214 21.9C211.034 21.9 211.974 20.72 211.974 18.86C211.974 17 211.014 15.82 208.214 15.82H202.154V21.9H208.214ZM217.89 27.02C218.37 27.02 218.77 27.42 218.77 27.9C218.77 28.4 218.37 28.78 217.89 28.78C217.41 28.78 217.01 28.4 217.01 27.9C217.01 27.42 217.41 27.02 217.89 27.02ZM218.27 23.76H217.51L217.23 14.5H218.55L218.27 23.76Z" fill="white"/>
<defs>
<linearGradient id="paint0_linear_67_61" x1="0" y1="21" x2="241" y2="21" gradientUnits="userSpaceOnUse">
<stop/>
<stop offset="1" stop-color="#CCCCCC"/>
</linearGradient>
</defs>
</svg>
