<svg width="502" height="212" viewBox="0 0 502 212" fill="none" xmlns="http://www.w3.org/2000/svg">
<path d="M75.8354 24.8024V41.7069H51.0858V90.1788H25.4022V41.7069H0.652588V24.8024H75.8354Z" fill="white"/>
<path d="M143.801 24.8024H169.485V90.1788H143.801V65.9895H114.569V90.1788H88.8851V24.8024H114.569V47.3105H143.801V24.8024Z" fill="white"/>
<path d="M184.462 24.8024H210.145V90.1788H184.462V24.8024Z" fill="white"/>
<path d="M284.438 90.1788L280.795 80.9327H251.656L248.014 90.1788H221.396L251.656 24.8024H280.795L311.055 90.1788H284.438ZM258.381 64.1216H274.071L266.226 44.1351L258.381 64.1216Z" fill="white"/>
<path d="M401.311 51.3265C403.553 79.5317 385.901 91.5797 359.657 91.5797C337.522 91.5797 314.828 83.7345 314.828 57.4906C314.828 31.34 336.682 23.4949 358.256 23.4949C378.243 23.4949 395.801 30.4995 399.817 46.6568H373.573C371.145 43.1078 367.035 40.2125 358.256 40.2125C346.208 40.2125 340.791 46.6568 340.791 57.4906C340.791 68.4178 348.263 74.862 359.937 74.862C370.117 74.862 374.227 70.3791 375.441 67.297H356.388V51.3265H401.311Z" fill="white"/>
<path d="M457.044 23.4949C479.179 23.4949 501.407 31.9938 501.407 57.4906C501.407 83.0808 479.179 91.5797 457.044 91.5797C434.91 91.5797 412.775 83.0808 412.775 57.4906C412.775 31.9938 434.91 23.4949 457.044 23.4949ZM457.044 74.862C468.999 74.862 475.35 68.0442 475.35 57.4906C475.35 47.0304 468.999 40.2125 457.044 40.2125C445.09 40.2125 438.739 47.0304 438.739 57.4906C438.739 68.0442 445.09 74.862 457.044 74.862Z" fill="white"/>
<path d="M27.6239 6.82758C30.8585 7.23617 32.5269 7.59369 32.5269 9.97712C32.5269 12.0882 30.7394 13.5182 27.1642 13.5182C23.572 13.5182 21.4439 12.2754 21.3418 9.97712H22.4824C22.6186 12.0371 25.1383 12.4287 27.1642 12.4287C29.4114 12.4287 31.3522 11.7988 31.3522 10.0622C31.3522 8.42789 29.9903 8.25764 27.4366 7.93418C23.6061 7.45749 21.7504 7.08295 21.7504 4.58034C21.7504 2.24798 23.9466 1.10733 26.7386 1.10733C29.5987 1.10733 31.6927 2.02666 31.8459 4.42712H30.7053C30.518 2.75871 28.9518 2.21393 26.7386 2.21393C24.5935 2.21393 22.9081 2.82681 22.9081 4.58034C22.9081 6.29982 24.5765 6.43602 27.6239 6.82758Z" fill="white"/>
<path d="M39.5887 3.95043C41.8019 3.95043 43.6746 4.64844 43.6746 7.50856V13.2799H42.5339V11.8498C41.9721 12.5308 40.7463 13.5182 38.6183 13.5182C36.2518 13.5182 35.0772 12.4116 35.0772 10.8624C35.0772 9.38126 35.9284 8.0193 39.3333 8.0193C40.4569 8.0193 41.4443 8.07037 42.5339 8.12145V7.50856C42.5339 5.65289 41.7338 4.86976 39.5887 4.86976C37.6479 4.86976 36.9158 5.58479 36.6945 6.62329H35.5538C35.7411 4.90381 37.3414 3.95043 39.5887 3.95043ZM38.8055 12.5989C40.6953 12.5989 41.9721 11.6626 42.5339 10.8964V9.0578C41.3592 8.9897 40.542 8.95565 39.5035 8.95565C37.5287 8.95565 36.2518 9.39829 36.2518 10.8113C36.2518 12.0882 37.3584 12.5989 38.8055 12.5989Z" fill="white"/>
<path d="M52.4081 3.95043C54.7065 3.95043 56.0344 5.44859 56.0344 7.55964V13.2799H54.8937V8.03632C54.8937 5.97635 53.9404 4.98893 51.8974 4.98893C49.7523 4.98893 48.9011 6.52114 48.8841 8.03632V13.2799H47.7604V4.2058H48.8841V5.80611C49.3267 5.12513 50.4163 3.95043 52.4081 3.95043Z" fill="white"/>
<path d="M72.8936 1.3627C76.3155 1.3627 77.2519 3.18433 77.2519 5.14215C77.2519 6.96378 76.3155 8.9216 72.8936 8.9216H67.8884V13.2799H66.7648V1.3627H72.8936ZM72.8936 7.78096C75.3111 7.78096 76.0772 6.67436 76.0772 5.14215C76.0772 3.60994 75.2941 2.48632 72.8936 2.48632H67.8884V7.78096H72.8936Z" fill="white"/>
<path d="M84.8805 3.95043C87.7406 3.95043 89.8687 5.78908 89.6644 9.21102H81.1351C81.3224 11.2369 82.7184 12.5989 84.9826 12.5989C86.7362 12.5989 87.7917 11.8668 88.3194 10.6581H89.4601C88.8132 12.5308 87.1277 13.5182 84.9826 13.5182C82.3438 13.5182 79.9774 12.003 79.9774 8.73433C79.9774 5.48264 82.2247 3.95043 84.8805 3.95043ZM81.1351 8.24062H88.5578C88.4386 6.31684 87.1277 4.86976 84.8805 4.86976C82.6332 4.86976 81.3224 6.2147 81.1351 8.24062Z" fill="white"/>
<path d="M100.618 1.3627H101.758V13.2799H100.618V11.7307C99.9198 12.7521 98.7451 13.5182 96.9746 13.5182C94.3187 13.5182 92.412 11.9009 92.412 8.73433C92.412 5.56776 94.3187 3.95043 96.9746 3.95043C98.7281 3.95043 99.9028 4.75058 100.618 5.80611V1.3627ZM97.1278 12.5989C99.7325 12.5989 100.788 10.7773 100.788 8.73433C100.788 6.70841 99.7496 4.86976 97.1278 4.86976C94.489 4.86976 93.5526 6.67436 93.5526 8.73433C93.5526 10.7943 94.506 12.5989 97.1278 12.5989Z" fill="white"/>
<path d="M110.764 3.95043C111.07 3.95043 111.308 3.98448 111.615 4.01853V5.2443H111.53C111.172 5.15917 110.798 5.07405 110.304 5.07405C107.835 5.07405 106.984 6.75948 106.984 8.13847V13.2799H105.843V4.2058H106.984V5.95933C107.342 5.27835 108.397 3.95043 110.764 3.95043Z" fill="white"/>
<path d="M118.875 3.95043C121.531 3.95043 123.761 5.48264 123.761 8.73433C123.761 12.003 121.531 13.5182 118.875 13.5182C116.236 13.5182 114.006 12.003 114.006 8.73433C114.006 5.48264 116.236 3.95043 118.875 3.95043ZM118.875 12.5989C121.309 12.5989 122.62 11.0326 122.62 8.73433C122.62 6.43602 121.309 4.86976 118.875 4.86976C116.44 4.86976 115.13 6.43602 115.13 8.73433C115.13 11.0326 116.44 12.5989 118.875 12.5989Z" fill="white"/>
<path d="M141.162 1.3627H142.303V13.2799H141.162V11.7307C140.464 12.7521 139.289 13.5182 137.519 13.5182C134.863 13.5182 132.956 11.9009 132.956 8.73433C132.956 5.56776 134.863 3.95043 137.519 3.95043C139.272 3.95043 140.447 4.75058 141.162 5.80611V1.3627ZM137.672 12.5989C140.277 12.5989 141.332 10.7773 141.332 8.73433C141.332 6.70841 140.294 4.86976 137.672 4.86976C135.033 4.86976 134.097 6.67436 134.097 8.73433C134.097 10.7943 135.05 12.5989 137.672 12.5989Z" fill="white"/>
<path d="M150.61 3.95043C153.47 3.95043 155.598 5.78908 155.394 9.21102H146.864C147.052 11.2369 148.448 12.5989 150.712 12.5989C152.466 12.5989 153.521 11.8668 154.049 10.6581H155.189C154.543 12.5308 152.857 13.5182 150.712 13.5182C148.073 13.5182 145.707 12.003 145.707 8.73433C145.707 5.48264 147.954 3.95043 150.61 3.95043ZM146.864 8.24062H154.287C154.168 6.31684 152.857 4.86976 150.61 4.86976C148.363 4.86976 147.052 6.2147 146.864 8.24062Z" fill="white"/>
<path d="M175.588 13.2799L174.141 10.2155H166.821L165.374 13.2799H164.097L169.749 1.3627H171.213L176.865 13.2799H175.588ZM167.348 9.09185H173.613L170.481 2.45227L167.348 9.09185Z" fill="white"/>
<path d="M184.317 5.15917H181.27V10.2155C181.27 12.2073 181.883 12.5819 184.317 12.3435V13.2969C183.994 13.382 183.721 13.4161 183.177 13.4161C181.014 13.4161 180.129 12.6159 180.129 10.2155V5.15917H178.052V4.2058H180.129V1.83939H181.27V4.2058H184.317V5.15917Z" fill="white"/>
<path d="M191.727 3.95043C193.94 3.95043 195.813 4.64844 195.813 7.50856V13.2799H194.672V11.8498C194.11 12.5308 192.885 13.5182 190.757 13.5182C188.39 13.5182 187.215 12.4116 187.215 10.8624C187.215 9.38126 188.067 8.0193 191.472 8.0193C192.595 8.0193 193.583 8.07037 194.672 8.12145V7.50856C194.672 5.65289 193.872 4.86976 191.727 4.86976C189.786 4.86976 189.054 5.58479 188.833 6.62329H187.692C187.879 4.90381 189.48 3.95043 191.727 3.95043ZM190.944 12.5989C192.834 12.5989 194.11 11.6626 194.672 10.8964V9.0578C193.498 8.9897 192.68 8.95565 191.642 8.95565C189.667 8.95565 188.39 9.39829 188.39 10.8113C188.39 12.0882 189.497 12.5989 190.944 12.5989Z" fill="white"/>
<path d="M204.087 12.5989C206.028 12.5989 207.27 11.6285 207.679 10.0452H208.837C208.309 12.4116 206.351 13.5182 204.087 13.5182C201.448 13.5182 199.218 12.003 199.218 8.73433C199.218 5.48264 201.448 3.95043 204.087 3.95043C206.351 3.95043 208.309 5.07405 208.837 7.42344H207.679C207.27 5.85718 206.028 4.86976 204.087 4.86976C201.652 4.86976 200.341 6.43602 200.341 8.73433C200.341 11.0326 201.652 12.5989 204.087 12.5989Z" fill="white"/>
<path d="M216.064 3.95043C218.277 3.95043 220.15 4.64844 220.15 7.50856V13.2799H219.009V11.8498C218.448 12.5308 217.222 13.5182 215.094 13.5182C212.727 13.5182 211.553 12.4116 211.553 10.8624C211.553 9.38126 212.404 8.0193 215.809 8.0193C216.932 8.0193 217.92 8.07037 219.009 8.12145V7.50856C219.009 5.65289 218.209 4.86976 216.064 4.86976C214.123 4.86976 213.391 5.58479 213.17 6.62329H212.029C212.217 4.90381 213.817 3.95043 216.064 3.95043ZM215.281 12.5989C217.171 12.5989 218.448 11.6626 219.009 10.8964V9.0578C217.835 8.9897 217.017 8.95565 215.979 8.95565C214.004 8.95565 212.727 9.39829 212.727 10.8113C212.727 12.0882 213.834 12.5989 215.281 12.5989Z" fill="white"/>
<path d="M235.064 3.95043C237.345 3.95043 238.349 5.44859 238.349 7.55964V13.2799H237.226V8.03632C237.226 5.97635 236.528 4.98893 234.536 4.98893C232.561 4.98893 231.863 6.52114 231.863 8.03632V13.2799H230.739V8.03632C230.739 5.97635 230.024 4.98893 228.049 4.98893C226.058 4.98893 225.377 6.52114 225.377 8.03632V13.2799H224.236V4.2058H225.377V5.72098C225.734 5.04 226.653 3.95043 228.56 3.95043C230.194 3.95043 231.182 4.71654 231.608 5.92528C231.914 5.26132 232.918 3.95043 235.064 3.95043Z" fill="white"/>
<path d="M246.104 3.95043C248.317 3.95043 250.19 4.64844 250.19 7.50856V13.2799H249.049V11.8498C248.487 12.5308 247.261 13.5182 245.133 13.5182C242.767 13.5182 241.592 12.4116 241.592 10.8624C241.592 9.38126 242.444 8.0193 245.848 8.0193C246.972 8.0193 247.959 8.07037 249.049 8.12145V7.50856C249.049 5.65289 248.249 4.86976 246.104 4.86976C244.163 4.86976 243.431 5.58479 243.21 6.62329H242.069C242.256 4.90381 243.857 3.95043 246.104 3.95043ZM245.321 12.5989C247.21 12.5989 248.487 11.6626 249.049 10.8964V9.0578C247.874 8.9897 247.057 8.95565 246.019 8.95565C244.044 8.95565 242.767 9.39829 242.767 10.8113C242.767 12.0882 243.874 12.5989 245.321 12.5989Z" fill="white"/>
<circle cx="10.0005" cy="7.31277" r="6.66333" fill="#72A9FF" fill-opacity="0.37"/>
<circle cx="10.0005" cy="7.31277" r="6.66333" fill="#72A9FF" fill-opacity="0.37"/>
<circle cx="10.0007" cy="7.31279" r="5.56611" fill="#72A9FF" fill-opacity="0.37"/>
<circle cx="10.0007" cy="7.31279" r="5.56611" fill="#72A9FF" fill-opacity="0.55"/>
<circle cx="10.0006" cy="7.31284" r="4.63953" fill="#72A9FF" fill-opacity="0.37"/>
<circle cx="10.0006" cy="7.31284" r="4.63953" fill="#A7C9FF" fill-opacity="0.55"/>
<circle cx="10.0006" cy="7.31281" r="2.9134" fill="#0057DF"/>
<path d="M59.1236 166.616L55.7453 158.04H28.7187L25.3404 166.616H0.652588L28.7187 105.979H55.7453L83.8114 166.616H59.1236ZM34.9556 142.448H49.5084L42.232 123.911L34.9556 142.448Z" fill="url(#paint0_linear_8_204)"/>
<path d="M167.524 130.581C169.603 156.741 153.231 167.915 128.89 167.915C108.36 167.915 87.3102 160.639 87.3102 136.298C87.3102 112.043 107.58 104.767 127.59 104.767C146.128 104.767 162.413 111.263 166.138 126.249H141.797C139.544 122.958 135.733 120.272 127.59 120.272C116.416 120.272 111.392 126.249 111.392 136.298C111.392 146.433 118.321 152.41 129.149 152.41C138.591 152.41 142.403 148.252 143.529 145.393H125.858V130.581H167.524Z" fill="url(#paint1_linear_8_204)"/>
<path d="M243.818 151.024V166.616H179.889V105.979H243.038V121.658H203.711V128.502H240.613V143.314H203.711V151.024H243.818Z" fill="url(#paint2_linear_8_204)"/>
<path d="M306.067 105.979H329.889V166.616H304.768L280.6 133.699V166.616H256.778V105.979H281.812L306.067 138.983V105.979Z" fill="url(#paint3_linear_8_204)"/>
<path d="M381.415 152.41C390.597 152.41 394.928 147.732 396.141 140.975H420.482C417.797 160.986 400.559 167.915 381.415 167.915C361.318 167.915 342.001 160.119 342.001 136.298C342.001 112.563 361.318 104.767 381.415 104.767C400.559 104.767 417.797 111.697 420.482 131.707H396.141C394.928 124.863 390.597 120.272 381.415 120.272C371.02 120.272 366.082 126.249 366.082 136.298C366.082 146.433 371.02 152.41 381.415 152.41Z" fill="url(#paint4_linear_8_204)"/>
<path d="M475.333 105.979H501.407L473.341 145.133V166.616H449.433V145.133L421.367 105.979H447.44L461.387 128.588L475.333 105.979Z" fill="url(#paint5_linear_8_204)"/>
<path d="M107.037 201.572V202.644H98.5574V191.444H106.877V192.5H99.6294V196.356H106.429V197.428H99.6294V201.572H107.037Z" fill="white"/>
<path d="M120.581 202.644H119.205L115.093 197.684L110.981 202.644H109.589L114.405 196.852L109.893 191.444H111.285L115.093 196.036L118.901 191.444H120.277L115.781 196.852L120.581 202.644Z" fill="white"/>
<path d="M128.189 201.844C130.765 201.844 132.157 200.548 132.685 198.516H133.805C133.197 201.412 131.005 202.868 128.189 202.868C124.989 202.868 122.349 200.868 122.349 197.044C122.349 193.22 124.989 191.204 128.189 191.204C131.005 191.204 133.197 192.676 133.805 195.572H132.685C132.157 193.54 130.765 192.244 128.189 192.244C125.117 192.244 123.437 194.228 123.437 197.044C123.437 199.86 125.117 201.844 128.189 201.844Z" fill="white"/>
<path d="M145.643 201.572V202.644H137.163V191.444H145.483V192.5H138.235V196.356H145.035V197.428H138.235V201.572H145.643Z" fill="white"/>
<path d="M157.642 201.572V202.644H149.162V191.444H157.482V192.5H150.234V196.356H157.034V197.428H150.234V201.572H157.642Z" fill="white"/>
<path d="M165.257 191.444C169.273 191.444 171.624 193.188 171.624 197.044C171.624 200.9 169.273 202.644 165.257 202.644H161.16V191.444H165.257ZM165.257 201.572C169.145 201.572 170.536 199.892 170.536 197.044C170.536 194.196 169.145 192.5 165.257 192.5H162.216V201.572H165.257Z" fill="white"/>
<path d="M189.752 191.444H191.08L185.96 198.372V202.644H184.904V198.372L179.784 191.444H181.112L185.432 197.316L189.752 191.444Z" fill="white"/>
<path d="M198.577 191.204C201.777 191.204 204.625 193.188 204.625 197.044C204.625 200.9 201.777 202.868 198.577 202.868C195.361 202.868 192.513 200.9 192.513 197.044C192.513 193.188 195.361 191.204 198.577 191.204ZM198.577 201.844C201.649 201.844 203.537 199.892 203.537 197.044C203.537 194.196 201.649 192.244 198.577 192.244C195.489 192.244 193.617 194.196 193.617 197.044C193.617 199.892 195.489 201.844 198.577 201.844Z" fill="white"/>
<path d="M216.624 191.444H217.696V198.036C217.696 201.652 215.728 202.868 212.832 202.868C209.936 202.868 207.984 201.652 207.984 198.036V191.444H209.04V198.036C209.04 200.692 210.176 201.844 212.832 201.844C215.488 201.844 216.624 200.692 216.624 198.036V191.444Z" fill="white"/>
<path d="M229.265 198.244L232.081 202.644H230.817L228.113 198.404C227.953 198.42 227.777 198.42 227.601 198.42H222.913V202.644H221.857V191.444H227.761C230.977 191.444 231.857 193.06 231.857 194.932C231.857 196.34 231.249 197.748 229.265 198.244ZM227.761 197.364C230.017 197.364 230.769 196.42 230.769 194.932C230.769 193.444 230.001 192.5 227.761 192.5H222.913V197.364H227.761Z" fill="white"/>
<path d="M252.363 199.764V202.644H240.555V191.444H252.219V194.34H244.955V195.604H251.771V198.34H244.955V199.764H252.363Z" fill="white"/>
<path d="M263.941 196.804L268.629 202.644H263.525L261.301 199.364L259.077 202.644H253.957L258.661 196.804L254.373 191.444H259.477L261.301 194.244L263.109 191.444H268.229L263.941 196.804Z" fill="white"/>
<path d="M278.668 191.444C281.996 191.444 283.532 192.788 283.532 195.316C283.532 198.308 281.452 199.316 278.364 199.316H274.796V202.644H270.396V191.444H278.668ZM277.724 196.452C278.684 196.452 279.148 196.116 279.148 195.348C279.148 194.644 278.684 194.34 277.724 194.34H274.796V196.452H277.724Z" fill="white"/>
<path d="M297.578 199.764V202.644H285.77V191.444H297.434V194.34H290.17V195.604H296.986V198.34H290.17V199.764H297.578Z" fill="white"/>
<path d="M306.775 200.02C308.471 200.02 309.271 199.156 309.495 197.908H313.992C313.496 201.604 310.311 202.884 306.775 202.884C303.063 202.884 299.495 201.444 299.495 197.044C299.495 192.66 303.063 191.22 306.775 191.22C310.311 191.22 313.496 192.5 313.992 196.196H309.495C309.271 194.932 308.471 194.084 306.775 194.084C304.855 194.084 303.943 195.188 303.943 197.044C303.943 198.916 304.855 200.02 306.775 200.02Z" fill="white"/>
<path d="M328.484 191.444V194.34H324.244V211.013H319.844V194.34H315.604V191.444H328.484Z" fill="white"/>
<path d="M338.645 202.644L338.021 201.06H333.029L332.405 202.644H327.845L333.029 191.444H338.021L343.205 202.644H338.645ZM334.181 198.18H336.869L335.525 194.756L334.181 198.18Z" fill="white"/>
<path d="M355.45 191.444V194.34H351.21V202.644H346.81V194.34H342.57V191.444H355.45Z" fill="white"/>
<path d="M357.686 191.444H362.086V202.644H357.686V191.444Z" fill="white"/>
<path d="M371.917 191.22C375.709 191.22 379.517 192.676 379.517 197.044C379.517 201.428 375.709 202.884 371.917 202.884C368.125 202.884 364.333 201.428 364.333 197.044C364.333 192.676 368.125 191.22 371.917 191.22ZM371.917 200.02C373.965 200.02 375.053 198.852 375.053 197.044C375.053 195.252 373.965 194.084 371.917 194.084C369.869 194.084 368.781 195.252 368.781 197.044C368.781 198.852 369.869 200.02 371.917 200.02Z" fill="white"/>
<path d="M390.865 191.444H395.265V202.644H390.625L386.161 196.564L386.385 211.013H381.985L381.761 191.444H386.385L390.865 197.54V191.444Z" fill="white"/>
<path d="M404.846 195.54C408.654 195.924 411.246 196.116 411.246 199.092C411.246 202.052 408.622 202.884 404.222 202.884C399.166 202.884 397.342 201.444 397.342 199.012H401.934C401.934 199.876 402.67 200.18 404.478 200.18C405.934 200.18 406.558 199.972 406.558 199.428C406.558 198.836 406.094 198.836 402.558 198.388C399.07 197.94 397.646 197.188 397.646 194.868C397.646 192.404 399.726 191.22 404.062 191.22C408.83 191.22 410.51 192.756 410.51 194.868H406.062C406.062 194.228 405.502 193.908 404.03 193.908C402.494 193.908 401.998 194.212 401.998 194.676C401.998 195.284 402.814 195.332 404.846 195.54Z" fill="white"/>
<defs>
<linearGradient id="paint0_linear_8_204" x1="265.792" y1="104.767" x2="265.099" y2="270.405" gradientUnits="userSpaceOnUse">
<stop stop-color="white"/>
<stop offset="1" stop-color="#B85C49"/>
</linearGradient>
<linearGradient id="paint1_linear_8_204" x1="265.792" y1="104.767" x2="265.099" y2="270.405" gradientUnits="userSpaceOnUse">
<stop stop-color="white"/>
<stop offset="1" stop-color="#B85C49"/>
</linearGradient>
<linearGradient id="paint2_linear_8_204" x1="265.792" y1="104.767" x2="265.099" y2="270.405" gradientUnits="userSpaceOnUse">
<stop stop-color="white"/>
<stop offset="1" stop-color="#B85C49"/>
</linearGradient>
<linearGradient id="paint3_linear_8_204" x1="265.792" y1="104.767" x2="265.099" y2="270.405" gradientUnits="userSpaceOnUse">
<stop stop-color="white"/>
<stop offset="1" stop-color="#B85C49"/>
</linearGradient>
<linearGradient id="paint4_linear_8_204" x1="265.792" y1="104.767" x2="265.099" y2="270.405" gradientUnits="userSpaceOnUse">
<stop stop-color="white"/>
<stop offset="1" stop-color="#B85C49"/>
</linearGradient>
<linearGradient id="paint5_linear_8_204" x1="265.792" y1="104.767" x2="265.099" y2="270.405" gradientUnits="userSpaceOnUse">
<stop stop-color="white"/>
<stop offset="1" stop-color="#B85C49"/>
</linearGradient>
</defs>
</svg>
