<svg width="496" height="24" viewBox="0 0 496 24" fill="none" xmlns="http://www.w3.org/2000/svg">
<path d="M23.1778 17.5564V23.2694H0.0722656V1.05249H8.80032V17.5564H23.1778Z" fill="black"/>
<path d="M44.7944 1.05249H53.5224V14.1287C53.5224 22.8568 47.4604 23.7454 40.5732 23.7454C33.7177 23.7454 27.6239 22.8568 27.6239 14.1287V1.05249H36.352V13.7161C36.352 16.9534 37.5897 18.0643 40.5732 18.0643C43.5883 18.0643 44.7944 16.9534 44.7944 13.7161V1.05249Z" fill="black"/>
<path d="M87.3709 10.0662C88.1326 19.6512 82.1341 23.7454 73.2156 23.7454C65.6936 23.7454 57.9812 21.0794 57.9812 12.1609C57.9812 3.27418 65.4079 0.608154 72.7395 0.608154C79.5315 0.608154 85.4983 2.98853 86.8631 8.47927H77.9446C77.1194 7.27321 75.7229 6.28932 72.7395 6.28932C68.6452 6.28932 66.8044 8.47927 66.8044 12.1609C66.8044 15.8743 69.3435 18.0643 73.3108 18.0643C76.7703 18.0643 78.1668 16.5408 78.5794 15.4935H72.1047V10.0662H87.3709Z" fill="black"/>
<path d="M110.165 23.2694L108.927 20.1273H99.0246L97.7868 23.2694H88.7413L99.0246 1.05249H108.927L119.21 23.2694H110.165ZM101.31 14.4143H106.642L103.976 7.62234L101.31 14.4143Z" fill="black"/>
<path d="M140.855 23.2694L136.538 16.3504H131.746V23.2694H123.018V1.05249H139.712C146.123 1.05249 149.392 3.46461 149.392 8.54275C149.392 11.9705 147.647 14.1287 144.917 15.2713L150.059 23.2694H140.855ZM131.746 6.79714V10.6692H137.839C139.712 10.6692 140.664 10.0662 140.664 8.63796C140.664 7.27321 139.712 6.79714 137.839 6.79714H131.746Z" fill="black"/>
<path d="M177.278 17.5564V23.2694H153.855V1.05249H176.992V6.79714H162.583V9.30447H176.103V14.7317H162.583V17.5564H177.278Z" fill="black"/>
<path d="M195.959 9.17752C203.513 9.93924 208.655 10.3201 208.655 16.2234C208.655 22.095 203.45 23.7454 194.721 23.7454C184.692 23.7454 181.074 20.889 181.074 16.0647H190.183C190.183 17.7786 191.643 18.3816 195.229 18.3816C198.117 18.3816 199.355 17.969 199.355 16.8899C199.355 15.7156 198.435 15.7156 191.421 14.8269C184.502 13.9383 181.677 12.4466 181.677 7.8445C181.677 2.95679 185.803 0.608154 194.404 0.608154C203.862 0.608154 207.195 3.65504 207.195 7.8445H198.371C198.371 6.57497 197.261 5.9402 194.341 5.9402C191.294 5.9402 190.31 6.54323 190.31 7.46364C190.31 8.6697 191.928 8.76492 195.959 9.17752Z" fill="black"/>
<path d="M239.963 1.05249C246.564 1.05249 249.611 3.71851 249.611 8.73318C249.611 14.6683 245.485 16.6678 239.36 16.6678H232.282V23.2694H223.554V1.05249H239.963ZM238.09 10.9866C239.994 10.9866 240.915 10.3201 240.915 8.79666C240.915 7.40017 239.994 6.79714 238.09 6.79714H232.282V10.9866H238.09Z" fill="black"/>
<path d="M268.459 0.608154C275.981 0.608154 283.535 3.49635 283.535 12.1609C283.535 20.8572 275.981 23.7454 268.459 23.7454C260.937 23.7454 253.415 20.8572 253.415 12.1609C253.415 3.49635 260.937 0.608154 268.459 0.608154ZM268.459 18.0643C272.522 18.0643 274.68 15.7474 274.68 12.1609C274.68 8.60623 272.522 6.28932 268.459 6.28932C264.397 6.28932 262.238 8.60623 262.238 12.1609C262.238 15.7474 264.397 18.0643 268.459 18.0643Z" fill="black"/>
<path d="M304.395 1.05249C310.997 1.05249 314.044 3.71851 314.044 8.73318C314.044 14.6683 309.918 16.6678 303.792 16.6678H296.714V23.2694H287.986V1.05249H304.395ZM302.523 10.9866C304.427 10.9866 305.347 10.3201 305.347 8.79666C305.347 7.40017 304.427 6.79714 302.523 6.79714H296.714V10.9866H302.523Z" fill="black"/>
<path d="M335.653 1.05249H344.381V14.1287C344.381 22.8568 338.319 23.7454 331.432 23.7454C324.576 23.7454 318.483 22.8568 318.483 14.1287V1.05249H327.211V13.7161C327.211 16.9534 328.448 18.0643 331.432 18.0643C334.447 18.0643 335.653 16.9534 335.653 13.7161V1.05249Z" fill="black"/>
<path d="M372.58 17.5564V23.2694H349.475V1.05249H358.203V17.5564H372.58Z" fill="black"/>
<path d="M397.18 23.2694L395.942 20.1273H386.04L384.802 23.2694H375.757L386.04 1.05249H395.942L406.225 23.2694H397.18ZM388.325 14.4143H393.657L390.991 7.62234L388.325 14.4143Z" fill="black"/>
<path d="M427.87 23.2694L423.553 16.3504H418.761V23.2694H410.033V1.05249H426.727C433.138 1.05249 436.407 3.46461 436.407 8.54275C436.407 11.9705 434.662 14.1287 431.932 15.2713L437.074 23.2694H427.87ZM418.761 6.79714V10.6692H424.855C426.727 10.6692 427.679 10.0662 427.679 8.63796C427.679 7.27321 426.727 6.79714 424.855 6.79714H418.761Z" fill="black"/>
<path d="M464.293 17.5564V23.2694H440.87V1.05249H464.007V6.79714H449.598V9.30447H463.118V14.7317H449.598V17.5564H464.293Z" fill="black"/>
<path d="M482.975 9.17752C490.528 9.93924 495.67 10.3201 495.67 16.2234C495.67 22.095 490.465 23.7454 481.737 23.7454C471.707 23.7454 468.089 20.889 468.089 16.0647H477.198C477.198 17.7786 478.658 18.3816 482.245 18.3816C485.133 18.3816 486.371 17.969 486.371 16.8899C486.371 15.7156 485.45 15.7156 478.436 14.8269C471.517 13.9383 468.692 12.4466 468.692 7.8445C468.692 2.95679 472.818 0.608154 481.419 0.608154C490.877 0.608154 494.21 3.65504 494.21 7.8445H485.387C485.387 6.57497 484.276 5.9402 481.356 5.9402C478.309 5.9402 477.325 6.54323 477.325 7.46364C477.325 8.6697 478.944 8.76492 482.975 9.17752Z" fill="black"/>
</svg>
